<?xml version="1.0" encoding="utf-8"?>
<!-- Generator: Adobe Illustrator 24.1.2, SVG Export Plug-In . SVG Version: 6.00 Build 0)  -->
<svg version="1.1" id="Layer_1" xmlns="http://www.w3.org/2000/svg" xmlns:xlink="http://www.w3.org/1999/xlink" x="0px" y="0px"
	 viewBox="0 0 32 512" style="enable-background:new 0 0 32 512;" xml:space="preserve">
<style type="text/css">
	.st0{fill:none;}
	.st1{fill:#FFFFFF;}
	.st2{fill-rule:evenodd;clip-rule:evenodd;fill:#FFFFFF;}
	.st3{fill:#28A9E0;}
	.st4{clip-path:url(#SVGID_2_);}
	.st5{fill:#030104;}
	.st6{fill:#E3E4D8;}
	.st7{fill:#D0CEBD;}
	.st8{fill:#B53438;}
</style>
<rect class="st0" width="32" height="480"/>
<path id="Icon" class="st1" d="M6,26v-2.5c0-2.8,4.5-5,10-5s10,2.3,10,5V26H6z M11,11c0-2.8,2.2-5,5-5s5,2.2,5,5s-2.2,5-5,5
	S11,13.8,11,11z"/>
<g id="Symbol_13_1" transform="translate(8 40)">
	<path id="Path_3" class="st2" d="M8,1.4c1.1,0,2.1,0,3.2,0.1c0.5,0,1,0.1,1.5,0.3c0.7,0.3,1.2,0.8,1.5,1.5c0.2,0.5,0.3,1,0.3,1.5
		c0,0.8,0.1,1.1,0.1,3.2c0,1.1,0,2.1-0.1,3.2c0,0.5-0.1,1-0.3,1.5c-0.3,0.7-0.8,1.2-1.5,1.5c-0.5,0.2-1,0.3-1.5,0.3
		c-0.8,0-1.1,0.1-3.2,0.1c-1.1,0-2.1,0-3.2-0.1c-0.5,0-1-0.1-1.5-0.3c-0.7-0.3-1.2-0.8-1.5-1.5c-0.2-0.5-0.3-1-0.3-1.5
		c0-0.8-0.1-1.1-0.1-3.2c0-1.1,0-2.1,0.1-3.2c0-0.5,0.1-1,0.3-1.5C1.9,3,2.1,2.7,2.4,2.4c0.2-0.3,0.5-0.5,0.9-0.6
		c0.5-0.2,1-0.3,1.5-0.3C5.9,1.4,6.9,1.4,8,1.4 M8,0C6.9,0,5.8,0,4.7,0.1c-0.7,0-1.3,0.1-2,0.4C2.2,0.7,1.7,1,1.3,1.4
		C0.9,1.7,0.6,2.2,0.4,2.8S0,4,0.1,4.7C0,5.8,0,6.9,0,8s0,2.2,0.1,3.3c0,0.7,0.1,1.3,0.4,2c0.2,0.5,0.5,1,0.9,1.4s0.9,0.7,1.4,0.9
		c0.6,0.2,1.3,0.4,2,0.4c1,0,2.1,0,3.2,0s2.2,0,3.3-0.1c0.7,0,1.3-0.1,2-0.4c1.1-0.4,1.9-1.2,2.3-2.3c0.2-0.6,0.4-1.3,0.4-2
		c0-0.9,0.1-1.2,0.1-3.3c0-1.1,0-2.2-0.1-3.3c0-0.7-0.1-1.3-0.4-2c-0.2-0.5-0.5-1-0.9-1.4s-0.9-0.7-1.4-0.9c-0.6-0.2-1.3-0.4-2-0.4
		C10.2,0,9.1,0,8,0 M8,3.9c-2.2,0-4.1,1.7-4.1,4V8c0,2.3,1.8,4.1,4.1,4.1s4.1-1.8,4.1-4.1S10.3,3.9,8,3.9L8,3.9 M8,10.7
		c-1.4,0-2.6-1.1-2.7-2.6V8c0-1.4,1.1-2.6,2.6-2.7H8c1.4,0,2.6,1.1,2.7,2.6V8C10.7,9.4,9.5,10.6,8,10.7C8.1,10.7,8,10.7,8,10.7
		 M12.3,2.8c-0.5,0-1,0.4-1,1c0,0.5,0.4,1,1,1c0.5,0,1-0.4,1-1l0,0C13.2,3.2,12.8,2.8,12.3,2.8"/>
</g>
<g id="Symbol_12_1" transform="translate(8 72)">
	<rect id="Rectangle_393" class="st0" width="16" height="16"/>
	<path id="Path_2" class="st2" d="M5.1,15c5.1,0,9.3-4.1,9.3-9.2c0-0.1,0-0.1,0-0.2V5.2c0.6-0.5,1.2-1,1.6-1.7
		c-0.6,0.3-1.2,0.4-1.9,0.5c0.7-0.4,1.2-1,1.4-1.8c-0.6,0.4-1.3,0.6-2,0.8c-0.6-0.6-1.5-1-2.4-1C9.3,2,7.8,3.5,7.8,5.3
		c0,0.2,0,0.5,0.1,0.7C5.3,5.9,2.8,4.6,1.2,2.5C0.9,3,0.7,3.6,0.7,4.2c0,1.1,0.5,2.1,1.4,2.8c-0.5,0-1-0.2-1.5-0.5l0,0
		c0,1.6,1.1,2.9,2.7,3.2C3,9.8,2.7,9.8,2.4,9.8c-0.2,0-0.4,0-0.6-0.1C2.2,11.1,3.5,12,4.9,12c-1.2,0.9-2.6,1.4-4.1,1.4
		c-0.3,0-0.5,0-0.8-0.1C1.5,14.4,3.2,15,5.1,15"/>
</g>
<g id="Symbol_11_1" transform="translate(8 104)">
	<rect id="Rectangle_392" class="st0" width="16" height="16"/>
	<path id="Path_1" class="st2" d="M9.4,16V8.7h2.5l0.4-2.8H9.4V4.1c0-0.8,0.3-1.4,1.4-1.4h1.5V0.1C12,0.1,11.1,0,10.1,0
		C8.2-0.1,6.6,1.3,6.5,3.2c0,0.2,0,0.4,0,0.5v2.1H4v2.8h2.5V16H9.4z"/>
</g>
<path id="Menu" class="st3" d="M6,152v-2.4h20v2.4H6z M6,144.7v-2.4h20v2.4H6z M6,137.4V135h20v2.4H6z"/>
<g>
	<g>
		<g>
			<defs>
				<circle id="SVGID_1_" cx="-290" cy="202" r="13"/>
			</defs>
			<clipPath id="SVGID_2_">
				<use xlink:href="#SVGID_1_"  style="overflow:visible;"/>
			</clipPath>
			<g id="Mask_Group_2" transform="translate(-153 13)" class="st4">
				<circle id="Ellipse_66" cx="169.5" cy="159.5" r="5.5"/>
				<path id="Path_215" d="M169.5,165c6.9,0,12.5,5.6,12.5,12.5h-12.5H157C157,170.6,162.6,165,169.5,165z"/>
			</g>
		</g>
	</g>
</g>
<path id="Icon_awesome-map-pin" d="M14.8,211.5v8.2l1.1,1.7c0.2,0.3,0.6,0.4,0.9,0.2c0.1,0,0.1-0.1,0.2-0.2l1.1-1.7v-8.2
	C17.1,211.7,15.9,211.7,14.8,211.5z M16.5,195c-4.1,0-7.5,3.4-7.5,7.5s3.4,7.5,7.5,7.5s7.5-3.4,7.5-7.5S20.6,195,16.5,195z
	 M16.5,199c-2,0-3.5,1.6-3.5,3.5c0,0.3-0.3,0.6-0.6,0.6s-0.6-0.3-0.6-0.6c0-2.6,2.1-4.8,4.8-4.8c0.3,0,0.6,0.3,0.6,0.6
	C17.1,198.7,16.8,199,16.5,199z"/>
<path id="Icon_awesome-cogs" d="M24,269.5l-0.3,0.6c-0.1,0.2-0.4,0.3-0.6,0.2c-0.5-0.2-0.9-0.4-1.3-0.7c-0.2-0.2-0.2-0.4-0.1-0.6
	l0.3-0.6c-0.3-0.3-0.5-0.7-0.6-1.1h-0.6c-0.2,0-0.4-0.2-0.5-0.4c-0.1-0.5-0.1-1,0-1.4c0-0.2,0.2-0.4,0.5-0.4h0.6
	c0.1-0.4,0.3-0.8,0.6-1.1l-0.3-0.6c-0.1-0.2-0.1-0.5,0.1-0.6c0.4-0.3,0.8-0.6,1.3-0.7c0.2-0.1,0.5,0,0.6,0.2l0.3,0.6
	c0.4-0.1,0.8-0.1,1.2,0l0.3-0.6c0.1-0.2,0.4-0.3,0.6-0.2c0.5,0.2,0.9,0.4,1.3,0.7c0.2,0.2,0.2,0.4,0.1,0.6l-0.3,0.6
	c0.3,0.3,0.5,0.7,0.6,1.1h0.6c0.2,0,0.4,0.2,0.5,0.4c0.1,0.5,0.1,1,0,1.4c0,0.2-0.2,0.4-0.5,0.4h-0.6c-0.1,0.4-0.3,0.8-0.6,1.1
	l0.3,0.6c0.1,0.2,0.1,0.5-0.1,0.6c-0.4,0.3-0.8,0.6-1.3,0.7c-0.2,0.1-0.5,0-0.6-0.2l-0.3-0.6C24.8,269.5,24.4,269.5,24,269.5
	L24,269.5z M23.6,267.2c0.6,0.6,1.5,0.5,2.1,0c0.5-0.6,0.5-1.5,0-2c-0.6-0.5-1.5-0.5-2.1,0.1C23.1,265.7,23.1,266.6,23.6,267.2
	L23.6,267.2z M19.1,273.2l1.3,0.7c0.4,0.2,0.6,0.7,0.4,1.1c-0.4,0.9-1,1.8-1.7,2.6c-0.3,0.3-0.8,0.4-1.2,0.2l-1.1-0.7
	c-0.6,0.5-1.4,1-2.1,1.2v1.3c0,0.5-0.3,0.8-0.8,0.9c-1,0.2-2,0.2-3,0c-0.4-0.1-0.8-0.5-0.8-0.9v-1.3c-0.8-0.3-1.5-0.7-2.1-1.2
	l-1.1,0.7c-0.4,0.2-0.9,0.1-1.2-0.2C5,276.8,4.5,276,4,275c-0.2-0.4,0-0.9,0.4-1.1l1.3-0.7c-0.2-0.8-0.2-1.7,0-2.5L4.5,270
	c-0.4-0.2-0.6-0.7-0.4-1.1c0.4-0.9,1-1.8,1.6-2.6c0.3-0.3,0.8-0.4,1.2-0.2l1.1,0.7c0.6-0.5,1.4-1,2.1-1.2v-1.3
	c0-0.5,0.3-0.8,0.8-0.9c1-0.2,2-0.2,3,0c0.4,0.1,0.8,0.5,0.8,0.9v1.3c0.8,0.3,1.5,0.7,2.1,1.2l1.1-0.7c0.4-0.2,0.9-0.1,1.2,0.2
	c0.7,0.8,1.2,1.6,1.6,2.6c0.2,0.4,0,0.9-0.4,1.1l-1.3,0.7C19.2,271.5,19.2,272.4,19.1,273.2L19.1,273.2z M14.5,274
	c1.1-1.2,1-3-0.2-4.1c-1.1-1-2.8-1-4,0c-1.1,1.2-1,3,0.2,4.1C11.7,275,13.4,275,14.5,274z M24,281.1l-0.3,0.6
	c-0.1,0.2-0.4,0.3-0.6,0.2c-0.5-0.2-0.9-0.4-1.3-0.7c-0.2-0.2-0.2-0.4-0.1-0.6L22,280c-0.3-0.3-0.5-0.7-0.6-1.1h-0.6
	c-0.2,0-0.4-0.2-0.5-0.4c-0.1-0.5-0.1-1,0-1.4c0-0.2,0.2-0.4,0.5-0.4h0.6c0.1-0.4,0.3-0.8,0.6-1.1l-0.3-0.6
	c-0.1-0.2-0.1-0.5,0.1-0.6c0.4-0.3,0.8-0.6,1.3-0.7c0.2-0.1,0.5,0,0.6,0.2l0.3,0.6c0.4-0.1,0.8-0.1,1.2,0l0.3-0.6
	c0.1-0.2,0.4-0.3,0.6-0.2c0.5,0.2,0.9,0.4,1.3,0.7c0.2,0.2,0.2,0.4,0.1,0.6l-0.3,0.6c0.3,0.3,0.5,0.7,0.6,1.1h0.6
	c0.2,0,0.4,0.2,0.5,0.4c0.1,0.5,0.1,1,0,1.4c0,0.2-0.2,0.4-0.5,0.4h-0.6c-0.1,0.4-0.3,0.8-0.6,1.1l0.3,0.6c0.1,0.2,0.1,0.5-0.1,0.6
	c-0.4,0.3-0.8,0.6-1.3,0.7c-0.2,0.1-0.5,0-0.6-0.2l-0.3-0.6C24.8,281.2,24.4,281.2,24,281.1L24,281.1z M23.6,278.8
	c0.6,0.6,1.5,0.5,2.1,0c0.5-0.6,0.5-1.5,0-2c-0.6-0.6-1.5-0.6-2.1,0C23,277.3,23,278.3,23.6,278.8L23.6,278.8z"/>
<path id="Icon_awesome-handshake" d="M20.7,296h-3.5c-0.3,0-0.6,0.1-0.9,0.3l-4,3.7l0,0c-0.6,0.6-0.7,1.6-0.1,2.3
	c0.6,0.6,1.6,0.7,2.3,0.1l0,0l3.2-3c0.3-0.2,0.7-0.2,0.9,0.1c0.2,0.3,0.2,0.7,0,0.9l-1.1,1l5.9,4.8c0.1,0.1,0.2,0.2,0.3,0.3v-7.9
	l-2.2-2.2C21.3,296.1,21,296,20.7,296z M25.1,298.6v9.1c0,0.7,0.6,1.3,1.3,1.3H29v-10.4H25.1z M27.1,307.7c-0.4,0-0.6-0.3-0.6-0.6
	c0-0.4,0.3-0.7,0.6-0.7c0.4,0,0.6,0.3,0.6,0.7l0,0C27.7,307.4,27.4,307.7,27.1,307.7L27.1,307.7z M3,309h2.6c0.7,0,1.3-0.6,1.3-1.3
	v-9.1H3V309z M4.9,306.4c0.4,0,0.7,0.3,0.7,0.6c0,0.4-0.3,0.7-0.7,0.7s-0.6-0.3-0.6-0.7l0,0C4.3,306.7,4.6,306.4,4.9,306.4z
	 M22.7,307.2l-6.1-4.9l-1.2,1.1c-1.2,1.1-3,1-4.1-0.2s-1-3,0.2-4.1l3.3-3h-3.4c-0.3,0-0.7,0.1-0.9,0.4l-2.2,2.2v9.1H9l3.7,3.3
	c1.1,0.9,2.8,0.7,3.7-0.4l0,0l0.7,0.6c0.6,0.5,1.6,0.4,2.1-0.2l0,0l1.3-1.6l0.2,0.2c0.6,0.5,1.4,0.4,1.8-0.2l0.4-0.5
	C23.3,308.4,23.2,307.6,22.7,307.2L22.7,307.2L22.7,307.2z"/>
<g id="Admin_icon" transform="translate(3.648 324)">
	<g id="Group_24" transform="translate(2.352 0)">
		<path id="Path_203" class="st5" d="M5.3,7.7c0,0.3,0.2,0.6,0.4,0.8C6,11,8.3,13.1,10.1,13c2.3-0.1,3.9-2.6,4.3-4.6
			c0.2-0.3,0.3-0.6,0.4-0.9C15,7,14.9,6.5,14.7,6l-0.1-0.1c0.6-1.4,0.4-3-0.6-4.1c-0.8-0.7-1.8-1.3-2.8-1.5C9-0.6,6.4,0.4,5.5,2.6
			c0,0.1-0.1,0.2-0.1,0.3C5,3.9,5,5,5.4,6C5.3,6,5.3,6,5.3,6.1C5,6.4,5.2,7.2,5.3,7.7z"/>
		<path id="Path_204" class="st5" d="M20,21.5c-0.1-1.7-0.2-4.5-1.7-6.7c-0.4-0.4-0.9-0.8-1.5-1c-1.1-0.3-2.2-0.8-3.2-1.4l-0.5,0.3
			l0.1,3l-2.8,7.5c-0.1,0.2-0.3,0.3-0.5,0.2c-0.1,0-0.2-0.1-0.2-0.2l-2.8-7.5l0.1-3l-0.5-0.3c-1,0.6-2.1,1.1-3.2,1.4
			c-0.6,0.2-1.1,0.5-1.5,1c-1.5,2.2-1.6,5-1.7,6.7c-0.1,1.2,0.2,1.6,0.5,1.8c3.9,1.6,15.1,1.6,19,0C19.8,23.1,20,22.7,20,21.5z"/>
		<path id="Path_205" class="st5" d="M10.1,14H10c-0.4,0-0.8-0.1-1.2-0.2l1.1,1.7l-1,1l1,6.2c0,0.1,0.1,0.1,0.1,0.1
			c0.1,0,0.1,0,0.1-0.1l1-6.2l-1-1l1.1-1.7C10.9,13.9,10.5,14,10.1,14z"/>
	</g>
</g>
<g id="Icon_material-photo-camera" transform="translate(1 354)">
	<path id="Path_206" d="M20.3,15.4c0,2.7-2.1,4.8-4.8,4.8s-4.8-2.1-4.8-4.8s2.1-4.8,4.8-4.8l0,0C18.2,10.6,20.3,12.7,20.3,15.4z"/>
	<path id="Path_207" d="M11.8,3L9.5,5.5h-4C4.1,5.5,3,6.6,3,8v15c0,1.4,1.1,2.5,2.5,2.5h20c1.4,0,2.5-1.1,2.5-2.5V8
		c0-1.4-1.1-2.5-2.5-2.5h-4L19.3,3H11.8z M15.5,21.8c-3.5,0-6.3-2.8-6.3-6.3s2.8-6.3,6.3-6.3s6.3,2.8,6.3,6.3
		C21.7,19,19,21.7,15.5,21.8z"/>
</g>
<path id="Icon_ionic-md-key" class="st1" d="M16.3,398.8c-0.7-2-2.6-3.3-4.7-3.4c-2.6,0-4.8,2.2-4.7,4.8c0,0,0,0,0,0.1
	c0,2.7,2.2,4.9,4.8,4.9l0,0c2.1-0.1,3.9-1.4,4.6-3.4h4.8v3h3.2v-3h2v-3H16.3z M11.7,401.9c-0.9,0-1.6-0.7-1.6-1.6s0.7-1.6,1.6-1.6
	c0.9,0,1.6,0.7,1.6,1.6C13.3,401.2,12.6,401.9,11.7,401.9z"/>
<path id="Icon_awesome-calendar-alt" d="M8.5,438.4c0,0.9,0.7,1.7,1.7,1.7h12.2c0.9,0,1.7-0.7,1.7-1.7V429H8.5V438.4z M19.6,431.6
	c0-0.2,0.2-0.4,0.4-0.4h1.4c0.2,0,0.4,0.2,0.4,0.4v1.4c0,0.2-0.2,0.4-0.4,0.4H20c-0.2,0-0.4-0.2-0.4-0.4V431.6z M19.6,436
	c0-0.2,0.2-0.4,0.4-0.4h1.4c0.2,0,0.4,0.2,0.4,0.4v1.4c0,0.2-0.2,0.4-0.4,0.4H20c-0.2,0-0.4-0.2-0.4-0.4V436z M15.1,431.6
	c0-0.2,0.2-0.4,0.4-0.4h1.4c0.2,0,0.4,0.2,0.4,0.4v1.4c0,0.2-0.2,0.4-0.4,0.4h-1.4c-0.2,0-0.4-0.2-0.4-0.4V431.6z M15.1,436
	c0-0.2,0.2-0.4,0.4-0.4h1.4c0.2,0,0.4,0.2,0.4,0.4v1.4c0,0.2-0.2,0.4-0.4,0.4h-1.4c-0.2,0-0.4-0.2-0.4-0.4V436z M10.7,431.6
	c0-0.2,0.2-0.4,0.4-0.4h1.4c0.2,0,0.4,0.2,0.4,0.4v1.4c0,0.2-0.2,0.4-0.4,0.4h-1.4c-0.2,0-0.4-0.2-0.4-0.4V431.6z M10.7,436
	c0-0.2,0.2-0.4,0.4-0.4h1.4c0.2,0,0.4,0.2,0.4,0.4v1.4c0,0.2-0.2,0.4-0.4,0.4h-1.4c-0.2,0-0.4-0.2-0.4-0.4V436z M22.3,424.5h-1.7
	v-1.7c0-0.3-0.2-0.6-0.6-0.6h-1c-0.3,0-0.6,0.2-0.6,0.6v1.7H14v-1.7c0-0.3-0.2-0.6-0.6-0.6h-1.1c-0.3,0-0.6,0.2-0.6,0.6v1.7H10
	c-0.9,0-1.7,0.7-1.7,1.7v1.7H24v-1.7C24,425.3,23.3,424.5,22.3,424.5L22.3,424.5z"/>
<path id="Icon_open-account-logout" class="st3" d="M13.3,456.4v2.1h8.2v10.3h-8.2v2.1h10.3v-14.4H13.3V456.4z M11.3,460.5l-4.1,3.1
	l4.1,3.1v-2.1h8.2v-2.1h-8.2V460.5z"/>
<path id="notifications-2" d="M15.6,227.6v2.9c-3.4,0.5-6.1,3.8-6.1,7.8v3.9c0.2,2-0.7,4-2.4,5.1l-1.9,1.6H13
	c0.2,1.9,1.8,3.3,3.7,3.1c1.7-0.1,3-1.5,3.1-3.1h7.8l-1.9-1.6c-1.6-1.2-2.5-3.1-2.4-5.1v-3.9c0-4-2.7-7.2-6.1-7.8v-2.9H15.6z
	 M16.5,250.2c-0.8,0-1.4-0.6-1.6-1.4H18C17.9,249.6,17.3,250.2,16.5,250.2L16.5,250.2z M21.7,238.3v3.9c-0.1,1.8,0.4,3.5,1.5,4.9
	H9.9c1.1-1.4,1.6-3.2,1.5-4.9v-3.9c0-3.3,2.3-6.1,5.2-6.1S21.7,235,21.7,238.3L21.7,238.3z"/>
<g>
	<path class="st6" d="M26.7,509.9H5.3v-29.4h16.6l4.8,4.8V509.9z"/>
	<path class="st7" d="M21.9,480.5v4.8h4.8L21.9,480.5z"/>
	<path class="st8" d="M5.3,501.9h21.4v9.6H5.3V501.9z"/>
	<g>
		<path class="st1" d="M8.5,509.9c-0.3,0-0.5-0.2-0.5-0.5V504c0-0.3,0.2-0.5,0.5-0.5c0.3,0,0.5,0.2,0.5,0.5v5.3
			C9.1,509.7,8.8,509.9,8.5,509.9z"/>
		<path class="st1" d="M23.5,504.6h-3.2c-0.3,0-0.5-0.2-0.5-0.5c0-0.3,0.2-0.5,0.5-0.5h3.2c0.3,0,0.5,0.2,0.5,0.5
			C24,504.3,23.8,504.6,23.5,504.6z"/>
		<path class="st1" d="M23.5,507.2h-3.2c-0.3,0-0.5-0.2-0.5-0.5c0-0.3,0.2-0.5,0.5-0.5h3.2c0.3,0,0.5,0.2,0.5,0.5
			C24,507,23.8,507.2,23.5,507.2z"/>
		<path class="st1" d="M20.3,509.9c-0.3,0-0.5-0.2-0.5-0.5V504c0-0.3,0.2-0.5,0.5-0.5c0.3,0,0.5,0.2,0.5,0.5v5.3
			C20.8,509.7,20.6,509.9,20.3,509.9z"/>
	</g>
	<path class="st8" d="M15.6,486.3c-0.1,0-0.7,0.9,0.1,1.7C16.2,486.8,15.6,486.3,15.6,486.3 M15.9,490.7c-0.4,1.3-0.9,2.7-1.4,4
		c1.1-0.4,2.3-0.8,3.5-1.1C17.3,492.8,16.5,491.8,15.9,490.7 M19.9,494.2c0.4,0.3,0.5,0.5,0.8,0.5c0.1,0,0.5,0,0.6-0.2
		c0.1-0.1,0.1-0.2,0.1-0.2c-0.1,0-0.2-0.1-0.6-0.1C20.6,494.1,20.3,494.1,19.9,494.2 M12.7,496.5c-1.1,0.6-1.6,1.2-1.6,1.4
		c0,0,0,0.2,0.2,0.4C11.3,498.3,11.8,498.1,12.7,496.5 M11.2,499.2c-0.2,0-0.4-0.1-0.5-0.2c-0.6-0.4-0.6-0.9-0.6-1.2
		c0.1-0.9,1.2-1.8,3.2-2.7c0.8-1.7,1.6-3.9,2-5.7c-0.5-1.1-1-2.6-0.7-3.5c0.1-0.3,0.3-0.5,0.6-0.6c0.1,0,0.4-0.1,0.5-0.1
		c0.3,0,0.5,0.3,0.7,0.6c0.2,0.4,0.2,0.9,0.2,1.3c0,0.4-0.1,0.9-0.2,1.3c-0.1,0.3-0.1,0.6-0.2,0.9c0.7,1.5,1.7,3,2.7,4
		c0.7-0.1,1.3-0.2,1.8-0.2c0.8,0,1.3,0.2,1.5,0.6c0.2,0.3,0.1,0.7-0.2,1.1c-0.3,0.4-0.7,0.6-1.2,0.6c-0.6,0-1.4-0.4-2.2-1.2
		c-1.5,0.3-3.3,0.9-4.7,1.5c-0.4,0.9-0.9,1.7-1.3,2.2C12.2,498.9,11.7,499.2,11.2,499.2"/>
	<path class="st1" d="M10.1,507.8H8.5c-0.3,0-0.5-0.2-0.5-0.5V504c0-0.3,0.2-0.5,0.5-0.5h1.6c1.2,0,2.1,1,2.1,2.1
		C12.3,506.8,11.3,507.8,10.1,507.8z M9.1,506.7h1.1c0.6,0,1.1-0.5,1.1-1.1c0-0.6-0.5-1.1-1.1-1.1H9.1V506.7z"/>
	<path class="st1" d="M14.9,509.9h-0.5c-0.3,0-0.5-0.2-0.5-0.5V504c0-0.3,0.2-0.5,0.5-0.5h0.5c1.8,0,3.2,1.4,3.2,3.2
		C18.1,508.5,16.7,509.9,14.9,509.9z M14.9,508.8L14.9,508.8L14.9,508.8z M14.9,504.6v4.3c1.2,0,2.1-1,2.1-2.1
		C17.1,505.5,16.1,504.6,14.9,504.6z"/>
</g>
</svg>
